<svg width="129" height="48" viewBox="0 0 129 48" fill="none" xmlns="http://www.w3.org/2000/svg">
<path d="M14.517 17.1818V22.2955H0.752841V17.1818H14.517ZM3.63636 11.9545H10.5824V32.1392C10.5824 32.5653 10.6487 32.911 10.7812 33.1761C10.9233 33.4318 11.1269 33.6165 11.392 33.7301C11.6572 33.8343 11.9744 33.8864 12.3438 33.8864C12.6089 33.8864 12.8883 33.8627 13.1818 33.8153C13.4848 33.7585 13.7121 33.7112 13.8636 33.6733L14.9148 38.6875C14.5833 38.7822 14.1146 38.9006 13.5085 39.0426C12.9119 39.1847 12.197 39.2746 11.3636 39.3125C9.73485 39.3883 8.33807 39.1989 7.1733 38.7443C6.01799 38.2803 5.13258 37.5606 4.51705 36.5852C3.91098 35.6098 3.61742 34.3835 3.63636 32.9062V11.9545Z" fill="black"/>
<path d="M19.2017 39V17.1818H26.1477V39H19.2017ZM22.6818 14.6392C21.7064 14.6392 20.8684 14.3172 20.1676 13.6733C19.4669 13.0199 19.1165 12.2339 19.1165 11.3153C19.1165 10.4062 19.4669 9.62973 20.1676 8.9858C20.8684 8.33239 21.7064 8.00568 22.6818 8.00568C23.6667 8.00568 24.5047 8.33239 25.196 8.9858C25.8968 9.62973 26.2472 10.4062 26.2472 11.3153C26.2472 12.2339 25.8968 13.0199 25.196 13.6733C24.5047 14.3172 23.6667 14.6392 22.6818 14.6392Z" fill="#FF0000"/>
<path d="M42.4006 39.4119C40.1184 39.4119 38.1487 38.9621 36.4915 38.0625C34.8438 37.1534 33.5748 35.8608 32.6847 34.1847C31.804 32.4991 31.3636 30.4962 31.3636 28.1761C31.3636 25.9223 31.8087 23.9527 32.6989 22.267C33.589 20.572 34.8438 19.2557 36.4631 18.3182C38.0824 17.3712 39.9905 16.8977 42.1875 16.8977C43.7405 16.8977 45.161 17.1392 46.4489 17.6222C47.7367 18.1051 48.8494 18.8201 49.7869 19.767C50.7244 20.714 51.4536 21.8835 51.9744 23.2756C52.4953 24.6581 52.7557 26.2443 52.7557 28.0341V29.767H33.7926V25.733H46.2926C46.2831 24.9943 46.108 24.3362 45.767 23.7585C45.4261 23.1809 44.9574 22.7311 44.3608 22.4091C43.7737 22.0777 43.0966 21.9119 42.3295 21.9119C41.553 21.9119 40.857 22.0871 40.2415 22.4375C39.6259 22.7784 39.1383 23.2472 38.7784 23.8438C38.4186 24.4309 38.2292 25.0985 38.2102 25.8466V29.9517C38.2102 30.8419 38.3854 31.6231 38.7358 32.2955C39.0862 32.9583 39.5833 33.4744 40.2273 33.8438C40.8712 34.2131 41.6383 34.3977 42.5284 34.3977C43.1439 34.3977 43.7027 34.3125 44.2045 34.142C44.7064 33.9716 45.1373 33.7206 45.4972 33.3892C45.857 33.0578 46.1269 32.6506 46.3068 32.1676L52.6847 32.3523C52.4195 33.7822 51.8371 35.0275 50.9375 36.0881C50.0473 37.1392 48.8778 37.9583 47.429 38.5455C45.9801 39.1231 44.304 39.4119 42.4006 39.4119ZM63.2493 26.5568V39H56.3033V17.1818H62.9084V21.1875H63.1499C63.6328 19.8523 64.4567 18.8059 65.6214 18.0483C66.7862 17.2812 68.1735 16.8977 69.7834 16.8977C71.3175 16.8977 72.648 17.2434 73.7749 17.9347C74.9112 18.6165 75.7919 19.5729 76.4169 20.804C77.0514 22.0256 77.3639 23.4555 77.3544 25.0938V39H70.4084V26.4574C70.4179 25.2453 70.1101 24.2983 69.4851 23.6165C68.8696 22.9347 68.0125 22.5938 66.9141 22.5938C66.1849 22.5938 65.541 22.7547 64.9822 23.0767C64.433 23.3892 64.0069 23.839 63.7038 24.4261C63.4103 25.0133 63.2588 25.7235 63.2493 26.5568ZM89.6236 39.3125C88.0137 39.3125 86.5507 38.8958 85.2344 38.0625C83.9181 37.2292 82.867 35.9792 82.081 34.3125C81.295 32.6458 80.902 30.5767 80.902 28.1051C80.902 25.5388 81.3092 23.4271 82.1236 21.7699C82.938 20.1127 84.0033 18.8864 85.3196 18.0909C86.6454 17.2955 88.0705 16.8977 89.5952 16.8977C90.741 16.8977 91.7211 17.0966 92.5355 17.4943C93.3499 17.8826 94.0223 18.3845 94.5526 19C95.0829 19.6155 95.4853 20.2547 95.7599 20.9176H95.902V9.90909H102.848V39H95.973V35.4631H95.7599C95.4664 36.1354 95.0497 36.7652 94.5099 37.3523C93.9702 37.9394 93.2931 38.4129 92.4787 38.7727C91.6738 39.1326 90.7221 39.3125 89.6236 39.3125ZM92.0384 33.9006C92.8812 33.9006 93.6009 33.6638 94.1974 33.1903C94.794 32.7074 95.2533 32.0303 95.5753 31.1591C95.8973 30.2879 96.0582 29.2652 96.0582 28.0909C96.0582 26.8977 95.8973 25.8703 95.5753 25.0085C95.2628 24.1468 94.8035 23.4839 94.1974 23.0199C93.6009 22.5559 92.8812 22.3239 92.0384 22.3239C91.1766 22.3239 90.4474 22.5606 89.8509 23.0341C89.2543 23.5076 88.7997 24.1752 88.4872 25.0369C88.1842 25.8987 88.0327 26.9167 88.0327 28.0909C88.0327 29.2652 88.1889 30.2879 88.5014 31.1591C88.8139 32.0303 89.2637 32.7074 89.8509 33.1903C90.4474 33.6638 91.1766 33.9006 92.0384 33.9006ZM113.391 39.3693C111.999 39.3693 110.763 39.1373 109.684 38.6733C108.614 38.1998 107.766 37.4896 107.141 36.5426C106.526 35.5862 106.218 34.3883 106.218 32.9489C106.218 31.7367 106.431 30.714 106.857 29.8807C107.283 29.0473 107.871 28.3703 108.619 27.8494C109.367 27.3286 110.228 26.9356 111.204 26.6705C112.179 26.3958 113.221 26.2112 114.329 26.1165C115.569 26.0028 116.568 25.8845 117.326 25.7614C118.084 25.6288 118.633 25.4441 118.974 25.2074C119.324 24.9612 119.499 24.6155 119.499 24.1705V24.0994C119.499 23.3703 119.248 22.8068 118.746 22.4091C118.245 22.0114 117.567 21.8125 116.715 21.8125C115.797 21.8125 115.058 22.0114 114.499 22.4091C113.941 22.8068 113.585 23.3561 113.434 24.0568L107.028 23.8295C107.217 22.5038 107.705 21.3201 108.491 20.2784C109.286 19.2273 110.375 18.4034 111.758 17.8068C113.15 17.2008 114.821 16.8977 116.772 16.8977C118.164 16.8977 119.447 17.0634 120.621 17.3949C121.796 17.7169 122.818 18.1903 123.69 18.8153C124.561 19.4309 125.233 20.1884 125.707 21.0881C126.19 21.9877 126.431 23.0152 126.431 24.1705V39H119.897V35.9602H119.727C119.338 36.6989 118.841 37.3239 118.235 37.8352C117.638 38.3466 116.933 38.7301 116.119 38.9858C115.314 39.2415 114.405 39.3693 113.391 39.3693ZM115.536 34.8239C116.284 34.8239 116.957 34.6723 117.553 34.3693C118.159 34.0663 118.642 33.6496 119.002 33.1193C119.362 32.5795 119.542 31.9545 119.542 31.2443V29.1705C119.343 29.2746 119.102 29.3693 118.817 29.4545C118.543 29.5398 118.24 29.6203 117.908 29.696C117.577 29.7718 117.236 29.8381 116.886 29.8949C116.535 29.9517 116.199 30.0038 115.877 30.0511C115.224 30.1553 114.665 30.3163 114.201 30.5341C113.746 30.7519 113.396 31.036 113.15 31.3864C112.913 31.7273 112.795 32.1345 112.795 32.608C112.795 33.3277 113.05 33.8769 113.562 34.2557C114.083 34.6345 114.741 34.8239 115.536 34.8239Z" fill="black"/>
</svg>
